<mxfile host="app.diagrams.net" modified="2024-02-16T08:19:17.984Z" agent="Mozilla/5.0 (Windows NT 10.0; Win64; x64) AppleWebKit/537.36 (KHTML, like Gecko) Chrome/121.0.0.0 Safari/537.36" etag="QZegHrNvSRlgzL0JG-QJ" version="23.1.5" type="device">
  <diagram name="Страница — 1" id="T3qCZe07DedndyIi-Z4_">
    <mxGraphModel dx="794" dy="494" grid="1" gridSize="10" guides="1" tooltips="1" connect="1" arrows="1" fold="1" page="1" pageScale="1" pageWidth="827" pageHeight="1169" background="#fbf9f9" math="0" shadow="0">
      <root>
        <mxCell id="0" />
        <mxCell id="1" parent="0" />
        <mxCell id="mtdWlz4Hyrzhfme2G9av-10" style="edgeStyle=orthogonalEdgeStyle;rounded=0;orthogonalLoop=1;jettySize=auto;html=1;entryX=0.25;entryY=1;entryDx=0;entryDy=0;exitX=0.5;exitY=0;exitDx=0;exitDy=0;" edge="1" parent="1" source="mtdWlz4Hyrzhfme2G9av-1" target="mtdWlz4Hyrzhfme2G9av-2">
          <mxGeometry relative="1" as="geometry" />
        </mxCell>
        <mxCell id="mtdWlz4Hyrzhfme2G9av-1" value="Class &lt;br&gt;home Animals" style="rounded=0;whiteSpace=wrap;html=1;" vertex="1" parent="1">
          <mxGeometry x="150" y="190" width="120" height="60" as="geometry" />
        </mxCell>
        <mxCell id="mtdWlz4Hyrzhfme2G9av-2" value="Class&lt;br&gt;Animals" style="rounded=0;whiteSpace=wrap;html=1;" vertex="1" parent="1">
          <mxGeometry x="350" y="70" width="120" height="60" as="geometry" />
        </mxCell>
        <mxCell id="mtdWlz4Hyrzhfme2G9av-19" style="edgeStyle=orthogonalEdgeStyle;rounded=0;orthogonalLoop=1;jettySize=auto;html=1;entryX=0.75;entryY=1;entryDx=0;entryDy=0;exitX=0.5;exitY=0;exitDx=0;exitDy=0;" edge="1" parent="1" source="mtdWlz4Hyrzhfme2G9av-3" target="mtdWlz4Hyrzhfme2G9av-2">
          <mxGeometry relative="1" as="geometry" />
        </mxCell>
        <mxCell id="mtdWlz4Hyrzhfme2G9av-3" value="Class&lt;br&gt;pack Animals" style="rounded=0;whiteSpace=wrap;html=1;" vertex="1" parent="1">
          <mxGeometry x="550" y="190" width="120" height="60" as="geometry" />
        </mxCell>
        <mxCell id="mtdWlz4Hyrzhfme2G9av-21" style="edgeStyle=orthogonalEdgeStyle;rounded=0;orthogonalLoop=1;jettySize=auto;html=1;entryX=0.25;entryY=1;entryDx=0;entryDy=0;exitX=0.5;exitY=0;exitDx=0;exitDy=0;" edge="1" parent="1" source="mtdWlz4Hyrzhfme2G9av-4" target="mtdWlz4Hyrzhfme2G9av-1">
          <mxGeometry relative="1" as="geometry" />
        </mxCell>
        <mxCell id="mtdWlz4Hyrzhfme2G9av-4" value="Class&lt;br&gt;Dog" style="rounded=0;whiteSpace=wrap;html=1;" vertex="1" parent="1">
          <mxGeometry x="20" y="380" width="120" height="60" as="geometry" />
        </mxCell>
        <mxCell id="mtdWlz4Hyrzhfme2G9av-22" style="edgeStyle=orthogonalEdgeStyle;rounded=0;orthogonalLoop=1;jettySize=auto;html=1;entryX=0.5;entryY=1;entryDx=0;entryDy=0;" edge="1" parent="1" source="mtdWlz4Hyrzhfme2G9av-5" target="mtdWlz4Hyrzhfme2G9av-1">
          <mxGeometry relative="1" as="geometry" />
        </mxCell>
        <mxCell id="mtdWlz4Hyrzhfme2G9av-5" value="Class&lt;br&gt;Cat" style="rounded=0;whiteSpace=wrap;html=1;" vertex="1" parent="1">
          <mxGeometry x="150" y="380" width="120" height="60" as="geometry" />
        </mxCell>
        <mxCell id="mtdWlz4Hyrzhfme2G9av-23" style="edgeStyle=orthogonalEdgeStyle;rounded=0;orthogonalLoop=1;jettySize=auto;html=1;entryX=0.75;entryY=1;entryDx=0;entryDy=0;exitX=0.5;exitY=0;exitDx=0;exitDy=0;" edge="1" parent="1" source="mtdWlz4Hyrzhfme2G9av-6" target="mtdWlz4Hyrzhfme2G9av-1">
          <mxGeometry relative="1" as="geometry" />
        </mxCell>
        <mxCell id="mtdWlz4Hyrzhfme2G9av-6" value="Class&lt;br&gt;Hamster" style="rounded=0;whiteSpace=wrap;html=1;" vertex="1" parent="1">
          <mxGeometry x="280" y="380" width="120" height="60" as="geometry" />
        </mxCell>
        <mxCell id="mtdWlz4Hyrzhfme2G9av-27" style="edgeStyle=orthogonalEdgeStyle;rounded=0;orthogonalLoop=1;jettySize=auto;html=1;entryX=0.25;entryY=1;entryDx=0;entryDy=0;exitX=0.5;exitY=0;exitDx=0;exitDy=0;" edge="1" parent="1" source="mtdWlz4Hyrzhfme2G9av-7" target="mtdWlz4Hyrzhfme2G9av-3">
          <mxGeometry relative="1" as="geometry" />
        </mxCell>
        <mxCell id="mtdWlz4Hyrzhfme2G9av-7" value="Class&lt;br&gt;Horse" style="rounded=0;whiteSpace=wrap;html=1;" vertex="1" parent="1">
          <mxGeometry x="420" y="380" width="120" height="60" as="geometry" />
        </mxCell>
        <mxCell id="mtdWlz4Hyrzhfme2G9av-30" style="edgeStyle=orthogonalEdgeStyle;rounded=0;orthogonalLoop=1;jettySize=auto;html=1;entryX=0.5;entryY=1;entryDx=0;entryDy=0;" edge="1" parent="1" source="mtdWlz4Hyrzhfme2G9av-8" target="mtdWlz4Hyrzhfme2G9av-3">
          <mxGeometry relative="1" as="geometry" />
        </mxCell>
        <mxCell id="mtdWlz4Hyrzhfme2G9av-8" value="Class&lt;br&gt;Camel" style="rounded=0;whiteSpace=wrap;html=1;" vertex="1" parent="1">
          <mxGeometry x="550" y="380" width="120" height="60" as="geometry" />
        </mxCell>
        <mxCell id="mtdWlz4Hyrzhfme2G9av-31" style="edgeStyle=orthogonalEdgeStyle;rounded=0;orthogonalLoop=1;jettySize=auto;html=1;entryX=0.75;entryY=1;entryDx=0;entryDy=0;exitX=0.5;exitY=0;exitDx=0;exitDy=0;" edge="1" parent="1" source="mtdWlz4Hyrzhfme2G9av-9" target="mtdWlz4Hyrzhfme2G9av-3">
          <mxGeometry relative="1" as="geometry" />
        </mxCell>
        <mxCell id="mtdWlz4Hyrzhfme2G9av-9" value="Class&lt;br&gt;Donkey" style="rounded=0;whiteSpace=wrap;html=1;" vertex="1" parent="1">
          <mxGeometry x="680" y="380" width="107" height="60" as="geometry" />
        </mxCell>
        <mxCell id="mtdWlz4Hyrzhfme2G9av-11" value="Extends" style="text;html=1;align=center;verticalAlign=middle;whiteSpace=wrap;rounded=0;" vertex="1" parent="1">
          <mxGeometry x="270" y="130" width="60" height="30" as="geometry" />
        </mxCell>
        <mxCell id="mtdWlz4Hyrzhfme2G9av-12" value="Extends" style="text;html=1;align=center;verticalAlign=middle;whiteSpace=wrap;rounded=0;" vertex="1" parent="1">
          <mxGeometry x="490" y="130" width="60" height="30" as="geometry" />
        </mxCell>
        <mxCell id="mtdWlz4Hyrzhfme2G9av-13" value="Extends" style="text;html=1;align=center;verticalAlign=middle;whiteSpace=wrap;rounded=0;" vertex="1" parent="1">
          <mxGeometry x="270" y="280" width="60" height="30" as="geometry" />
        </mxCell>
        <mxCell id="mtdWlz4Hyrzhfme2G9av-14" value="Extends" style="text;html=1;align=center;verticalAlign=middle;whiteSpace=wrap;rounded=0;rotation=270;" vertex="1" parent="1">
          <mxGeometry x="160" y="320" width="60" height="30" as="geometry" />
        </mxCell>
        <mxCell id="mtdWlz4Hyrzhfme2G9av-15" value="Extends" style="text;html=1;align=center;verticalAlign=middle;whiteSpace=wrap;rounded=0;" vertex="1" parent="1">
          <mxGeometry x="90" y="280" width="60" height="30" as="geometry" />
        </mxCell>
        <mxCell id="mtdWlz4Hyrzhfme2G9av-16" value="Extends" style="text;html=1;align=center;verticalAlign=middle;whiteSpace=wrap;rounded=0;" vertex="1" parent="1">
          <mxGeometry x="490" y="280" width="60" height="30" as="geometry" />
        </mxCell>
        <mxCell id="mtdWlz4Hyrzhfme2G9av-18" value="Extends" style="text;html=1;align=center;verticalAlign=middle;whiteSpace=wrap;rounded=0;" vertex="1" parent="1">
          <mxGeometry x="670" y="280" width="60" height="30" as="geometry" />
        </mxCell>
        <mxCell id="mtdWlz4Hyrzhfme2G9av-24" value="Extends" style="text;html=1;align=center;verticalAlign=middle;whiteSpace=wrap;rounded=0;rotation=270;" vertex="1" parent="1">
          <mxGeometry x="570" y="320" width="60" height="30" as="geometry" />
        </mxCell>
      </root>
    </mxGraphModel>
  </diagram>
</mxfile>
